<svg width="72" height="60" viewBox="0 0 72 60" fill="none" xmlns="http://www.w3.org/2000/svg">
<g id="Group">
<path id="Vector" fill-rule="evenodd" clip-rule="evenodd" d="M9 12.5C9.7348 12.5001 10.444 12.7249 10.9931 13.1318C11.5422 13.5387 11.893 14.0994 11.979 14.7075L12 15V32.5H33V20C33.0001 19.3877 33.2699 18.7967 33.7581 18.3391C34.2464 17.8815 34.9192 17.5891 35.649 17.5175L36 17.5H57C59.2956 17.4999 61.5045 18.2308 63.1748 19.5432C64.845 20.8556 65.8503 22.6503 65.985 24.56L66 25V45C65.9992 45.6372 65.7064 46.2501 65.1815 46.7134C64.6565 47.1768 63.9391 47.4556 63.1758 47.4929C62.4125 47.5303 61.6609 47.3233 61.0745 46.9143C60.4881 46.5054 60.1113 45.9252 60.021 45.2925L60 45V37.5H12V45C11.9992 45.6372 11.7064 46.2501 11.1815 46.7134C10.6565 47.1768 9.93914 47.4556 9.17582 47.4929C8.41249 47.5303 7.66086 47.3233 7.0745 46.9143C6.48814 46.5054 6.11131 45.9252 6.021 45.2925L6 45V15C6 14.337 6.31607 13.7011 6.87868 13.2322C7.44129 12.7634 8.20435 12.5 9 12.5ZM57 22.5H39V32.5H60V25C60 24.337 59.6839 23.7011 59.1213 23.2322C58.5587 22.7634 57.7957 22.5 57 22.5ZM22.5 17.5C24.4891 17.5 26.3968 18.1585 27.8033 19.3306C29.2098 20.5027 30 22.0924 30 23.75C30 25.4076 29.2098 26.9973 27.8033 28.1694C26.3968 29.3415 24.4891 30 22.5 30C20.5109 30 18.6032 29.3415 17.1967 28.1694C15.7902 26.9973 15 25.4076 15 23.75C15 22.0924 15.7902 20.5027 17.1967 19.3306C18.6032 18.1585 20.5109 17.5 22.5 17.5ZM22.5 22.5C22.1022 22.5 21.7206 22.6317 21.4393 22.8661C21.158 23.1005 21 23.4185 21 23.75C21 24.0815 21.158 24.3995 21.4393 24.6339C21.7206 24.8683 22.1022 25 22.5 25C22.8978 25 23.2794 24.8683 23.5607 24.6339C23.842 24.3995 24 24.0815 24 23.75C24 23.4185 23.842 23.1005 23.5607 22.8661C23.2794 22.6317 22.8978 22.5 22.5 22.5Z" fill="#0A508F"/>
</g>
</svg>
