<svg width="59" height="65" viewBox="0 0 59 65" fill="none" xmlns="http://www.w3.org/2000/svg">
<path id="Vector" fill-rule="evenodd" clip-rule="evenodd" d="M29.1733 35.8333H29.3033C38.2782 35.8333 45.5533 27.812 45.5533 17.9167C45.5533 8.02129 38.2782 0 29.3033 0H29.1733C20.2586 0.0770417 13.0533 8.06967 13.0533 17.9167C13.0533 27.7637 20.2586 35.7563 29.1733 35.8333ZM42.2026 19.7083H38.9526C38.8648 21.3441 38.6568 22.9154 38.3448 24.3935H40.9026C41.5782 22.9264 42.0181 21.3412 42.2026 19.7083ZM38.5626 27.9769H37.3195C37.0806 28.6272 36.8157 29.2454 36.533 29.8312C37.265 29.2902 37.9456 28.669 38.5642 27.9769H38.5626ZM34.9925 24.3935C35.3467 22.9656 35.5937 21.3907 35.6961 19.7083H30.9283V24.3935H34.9925ZM30.9283 27.9769H33.7461C33.621 28.242 33.4926 28.4965 33.3593 28.7419C32.5468 30.2308 31.7067 31.1517 30.9283 31.6731V27.9769ZM27.6783 24.3935V19.7083H22.8066C22.909 21.3907 23.156 22.9656 23.5102 24.3935H27.6783ZM24.7566 27.9769H27.6783V31.7394C26.8723 31.2323 25.9916 30.2989 25.1433 28.7419C25.0073 28.4914 24.8783 28.2362 24.7566 27.9769ZM20.1578 24.3935C19.8362 22.8534 19.6328 21.2861 19.5501 19.7083H16.4041C16.5926 21.3746 17.0411 22.9548 17.7041 24.3935H20.1578ZM20.0441 27.9769H21.1816C21.4058 28.5825 21.6496 29.1594 21.9112 29.7076C21.2407 29.1962 20.6167 28.6168 20.0441 27.9769ZM38.9526 16.125C38.87 14.5472 38.6667 12.9799 38.3448 11.4398H40.9026C41.5787 12.9067 42.0186 14.492 42.2026 16.125H38.9526ZM38.5626 7.85646H37.3195C37.0806 7.20608 36.8157 6.58796 36.533 6.00208C37.2658 6.54496 37.9467 7.16667 38.5642 7.85646H38.5626ZM30.9283 7.85646H33.7461C33.6244 7.59711 33.4954 7.34197 33.3593 7.09142C32.5468 5.60075 31.7067 4.68162 30.9283 4.16025V7.85646ZM34.9925 11.4398H30.9283V16.125H35.6961C35.6029 14.5414 35.3672 12.972 34.9925 11.4398ZM27.6783 4.09396V7.85646H24.7566C24.8817 7.59129 25.0117 7.33687 25.1433 7.09142C25.99 5.53446 26.8723 4.60279 27.6783 4.09396ZM27.6783 11.4398H23.5102C23.156 12.8678 22.909 14.4426 22.8066 16.125H27.6783V11.4398ZM21.9096 6.12571C21.6496 6.67396 21.4058 7.25088 21.1832 7.85646H20.0441C20.6145 7.21683 21.2385 6.63812 21.9096 6.12571ZM20.1578 11.4398H17.7041C17.0284 12.907 16.5886 14.4922 16.4041 16.125H19.5501C19.6378 14.4874 19.8458 12.9179 20.1578 11.4398ZM4.43759 19.7083C2.75084 19.6653 1.05759 20.8066 0.509967 22.584C0.373467 23.0283 0.298717 23.6088 0.245092 24.1373C0.188217 24.7143 0.144341 25.4076 0.110216 26.1619C0.0397804 27.8892 0.00348022 29.618 0.00134139 31.347C-0.0116586 34.9626 0.0712167 38.7251 0.189842 39.8915C0.397842 41.934 1.46384 43.8367 2.39009 45.4922L2.49409 45.6767C2.77522 46.1784 3.05309 46.6783 3.32609 47.1925C4.55134 49.5055 5.88384 51.0643 7.09122 52.4779L7.11884 52.5084C7.79809 53.3021 8.42697 54.0402 9.02009 54.8626C8.4447 55.5285 8.12454 56.4136 8.12634 57.3333V60.9167C8.12634 61.867 8.46875 62.7785 9.07825 63.4505C9.68774 64.1225 10.5144 64.5 11.3763 64.5H24.3763C25.2383 64.5 26.0649 64.1225 26.6744 63.4505C27.2839 62.7785 27.6263 61.867 27.6263 60.9167V57.3333C27.6263 56.4264 27.3144 55.5533 26.7535 54.8899C26.1925 54.2266 25.4244 53.8224 24.6038 53.759C24.3845 51.7236 24.1001 48.9752 24.0741 48.1922C24.0513 47.5186 23.8466 46.861 23.6548 46.3612C23.4536 45.846 23.2224 45.3456 22.9626 44.8633C22.6955 44.3622 22.4092 43.8739 22.1046 43.3995L22.0412 43.3028L22.025 43.2759L22.0185 43.267L22.0152 43.2616L21.999 43.2365L16.7275 35.9086L16.6787 35.8548V35.8512L16.6722 35.8441L16.6332 35.7975C16.3909 35.5018 16.1578 35.1971 15.9345 34.8837C15.4372 34.199 15.0038 33.4607 14.641 32.68C14.2705 31.8415 13.5685 31.037 12.4911 30.9779C11.573 30.9242 10.8531 31.4617 10.4338 31.8755C10.2029 32.105 9.99237 32.3582 9.80497 32.6316L9.73184 31.553L9.72372 31.4348C9.56447 29.0734 9.37109 26.2157 8.74222 23.9277C8.00447 21.251 6.36484 19.7603 4.43597 19.7101L4.43759 19.7083ZM21.3295 53.75C21.1182 51.7792 20.855 49.2045 20.8257 48.323C20.8198 48.2701 20.8095 48.218 20.7948 48.1672C20.7578 48.0251 20.7128 47.8856 20.66 47.7497C20.5134 47.38 20.3457 47.0209 20.1578 46.6747C19.9388 46.2638 19.7041 45.8633 19.4542 45.4743L19.412 45.408L14.264 38.2521L14.2347 38.2162C13.9375 37.8535 13.6519 37.4794 13.3783 37.0947C12.9404 36.4826 12.5382 35.8405 12.1742 35.1722L12.1628 35.1919C12.0166 35.4911 11.9353 35.7653 11.911 35.9444C11.8216 36.5787 11.8671 37.0158 11.9126 37.2523C11.9263 37.3279 11.9453 37.4022 11.9695 37.4745V37.4799L14.9465 43.998L12.1823 45.8595L12.1417 45.7986L12.0296 45.6284C11.4495 44.7462 10.8753 43.8593 10.3071 42.9678C9.32072 41.4198 8.14097 39.5206 7.55922 38.3811C7.12372 37.53 6.92222 36.4031 6.79384 35.3836C6.66142 34.2119 6.56116 33.036 6.49322 31.8576L6.48997 31.8182C6.32097 29.3135 6.14547 26.8374 5.63197 24.9687C5.40772 24.1535 5.11847 23.7432 4.91047 23.5443C4.76098 23.3901 4.56581 23.301 4.36122 23.2935C3.91759 23.2809 3.62347 23.6195 3.58609 23.7414C3.58284 23.7521 3.56822 23.813 3.54709 23.9456C3.51776 24.1377 3.49391 24.3307 3.47559 24.5243C3.42847 25.0045 3.38784 25.6208 3.35534 26.3411C3.28825 28.0135 3.25412 29.6873 3.25297 31.3613C3.23834 35.0145 3.32772 38.5674 3.42197 39.4919C3.53897 40.6475 4.19222 41.882 5.26147 43.7955L5.26634 43.8045C5.54259 44.299 5.83997 44.8311 6.13409 45.3865C7.16272 47.3287 8.27097 48.6312 9.48484 50.0502L9.51247 50.0825C10.416 51.1395 11.3975 52.2862 12.3237 53.75H21.3295ZM12.6763 34.4824C12.6763 34.4824 12.6698 34.4842 12.6585 34.495C12.6649 34.4916 12.6709 34.4874 12.6763 34.4824ZM24.3763 60.9167V57.3333H11.3763V60.9167H24.3763ZM57.9927 22.584C57.4435 20.8066 55.7518 19.6653 54.0651 19.7101C52.1378 19.7603 50.4982 21.251 49.7605 23.9277C49.1316 26.2157 48.9382 29.0734 48.779 31.4348L48.7708 31.553L48.6977 32.6316C48.5027 32.3503 48.2915 32.0941 48.0688 31.8755C47.6496 31.4635 46.9313 30.926 46.0116 30.9761C44.9342 31.037 44.2322 31.8415 43.8617 32.6782C43.4982 33.4589 43.0643 34.1972 42.5666 34.882C42.3434 35.196 42.1103 35.5013 41.8678 35.7975L41.8305 35.8441L41.824 35.853L41.7752 35.9086L36.5053 43.2365L36.4875 43.2616L36.4842 43.267L36.4793 43.2759L36.4615 43.3028C36.1329 43.8066 35.8254 44.3267 35.5401 44.8615C35.2798 45.3444 35.048 45.8453 34.8462 46.3612C34.6561 46.861 34.4513 47.5186 34.4286 48.1922C34.4026 48.9752 34.1198 51.7236 33.8988 53.759C33.0783 53.8224 32.3101 54.2266 31.7492 54.8899C31.1883 55.5533 30.8764 56.4264 30.8763 57.3333V60.9167C30.8763 61.867 31.2188 62.7785 31.8282 63.4505C32.4377 64.1225 33.2644 64.5 34.1263 64.5H47.1263C47.9883 64.5 48.8149 64.1225 49.4244 63.4505C50.0339 62.7785 50.3763 61.867 50.3763 60.9167V57.3333C50.3769 56.413 50.0563 55.5276 49.481 54.8608C50.0757 54.0402 50.703 53.3021 51.3822 52.5084L51.4098 52.4761C52.6172 51.0643 53.9497 49.5055 55.175 47.1925C55.448 46.6783 55.7275 46.1802 56.007 45.6767L56.111 45.4922C57.0372 43.8367 58.1032 41.934 58.3112 39.8915C58.4298 38.7251 58.5127 34.9626 58.4997 31.347C58.4981 29.618 58.4623 27.8892 58.3925 26.1619C58.3648 25.4858 58.3198 24.8107 58.2576 24.1373C58.2056 23.6088 58.1308 23.0265 57.9927 22.584ZM46.1806 53.75C47.1068 52.2862 48.0867 51.1395 48.9918 50.0825L49.0178 50.0502C50.2317 48.6312 51.3416 47.3269 52.3686 45.3865C52.6611 44.8311 52.9585 44.3007 53.2363 43.8045L53.2412 43.7955C54.3121 41.882 54.9637 40.6475 55.0807 39.4919C55.175 38.5674 55.2627 35.0145 55.2497 31.3613C55.2432 29.5589 55.2123 27.778 55.1473 26.3411C55.1148 25.6208 55.0742 25.0045 55.0271 24.5243C55.0087 24.3307 54.9849 24.1377 54.9556 23.9456C54.9456 23.8769 54.9326 23.8087 54.9166 23.7414C54.8792 23.6195 54.5851 23.2809 54.1431 23.2935C53.9379 23.3005 53.7421 23.3897 53.5922 23.5443C53.3842 23.7414 53.095 24.1535 52.8707 24.9687C52.3572 26.8356 52.1817 29.3135 52.0127 31.8182L52.0095 31.8576C51.9282 33.0831 51.8437 34.3194 51.7088 35.3836C51.5821 36.4031 51.379 37.53 50.9451 38.3829C50.3617 39.5206 49.182 41.4198 48.1956 42.9695C47.6273 43.8605 47.0532 44.7468 46.4731 45.6284L46.3593 45.7986L46.3203 45.8595L43.5562 43.9962L46.5316 37.4799L46.5332 37.4745C46.5573 37.4022 46.5763 37.3279 46.5901 37.2523C46.6356 37.0158 46.6811 36.5787 46.5917 35.9444C46.5454 35.6802 46.4603 35.426 46.3398 35.1919L46.3285 35.1722C45.9287 35.9157 45.4883 36.5822 45.126 37.0929C44.852 37.4783 44.5658 37.853 44.268 38.2162L44.2371 38.2521L39.0907 45.408L39.0485 45.4743C38.7987 45.8634 38.564 46.2638 38.3448 46.6747C38.1498 47.0402 37.9711 47.4147 37.8427 47.7497C37.7793 47.9163 37.7355 48.0543 37.7078 48.1654C37.6933 48.2168 37.6829 48.2696 37.677 48.323C37.6477 49.2045 37.3845 51.781 37.1732 53.75H46.1806ZM45.8263 34.4824C45.8263 34.4824 45.8328 34.4842 45.8442 34.495C45.8378 34.4915 45.8318 34.4873 45.8263 34.4824ZM34.1263 60.9167V57.3333H47.1263V60.9167H34.1263Z" fill="#0A508F"/>
</svg>
