<svg width="55" height="58" viewBox="0 0 55 58" fill="none" xmlns="http://www.w3.org/2000/svg">
<g id="Group">
<path id="Vector" d="M47.4897 15.6872C47.6863 15.7377 47.8904 15.7466 48.0902 15.7132C48.2901 15.6799 48.4816 15.605 48.6538 15.493C48.826 15.3809 48.9753 15.2339 49.0932 15.0604C49.2111 14.887 49.2951 14.6906 49.3404 14.4826C49.3858 14.2746 49.3915 14.0592 49.3572 13.8489C49.323 13.6386 49.2495 13.4375 49.141 13.2574C49.0325 13.0773 48.8911 12.9217 48.7252 12.7997C48.5592 12.6776 48.3719 12.5916 48.1741 12.5465L38.0666 10.0972C37.8685 10.0416 37.6619 10.0286 37.4589 10.0591C37.256 10.0895 37.0609 10.1627 36.8854 10.2743C36.7098 10.3859 36.5573 10.5337 36.437 10.7087C36.3167 10.8838 36.231 11.0826 36.1851 11.2933C36.1392 11.504 36.1339 11.7223 36.1696 11.9352C36.2053 12.1481 36.2813 12.3513 36.393 12.5325C36.5047 12.7138 36.6498 12.8696 36.8198 12.9905C36.9897 13.1113 37.181 13.1949 37.3822 13.2362L47.4897 15.6872Z" fill="#0A508F"/>
<path id="Vector_2" fill-rule="evenodd" clip-rule="evenodd" d="M42.7781 25.7828C46.0196 25.7828 49.1282 24.4246 51.4203 22.007C53.7123 19.5894 55 16.3104 55 12.8914C55 9.47237 53.7123 6.1934 51.4203 3.7758C49.1282 1.35819 46.0196 0 42.7781 0C39.5367 0 36.428 1.35819 34.136 3.7758C31.8439 6.1934 30.5563 9.47237 30.5563 12.8914C30.5563 16.3104 31.8439 19.5894 34.136 22.007C36.428 24.4246 39.5367 25.7828 42.7781 25.7828ZM42.7781 22.5599C43.9819 22.5599 45.1738 22.3098 46.286 21.8239C47.3981 21.338 48.4086 20.6259 49.2598 19.7281C50.1109 18.8303 50.7861 17.7644 51.2468 16.5914C51.7074 15.4183 51.9445 14.1611 51.9445 12.8914C51.9445 11.6217 51.7074 10.3644 51.2468 9.19139C50.7861 8.01835 50.1109 6.9525 49.2598 6.05469C48.4086 5.15689 47.3981 4.44471 46.286 3.95882C45.1738 3.47293 43.9819 3.22284 42.7781 3.22284C40.347 3.22284 38.0155 4.24149 36.2965 6.05469C34.5775 7.86789 33.6117 10.3271 33.6117 12.8914C33.6117 15.4556 34.5775 17.9149 36.2965 19.7281C38.0155 21.5413 40.347 22.5599 42.7781 22.5599ZM16.4675 5.22906C15.479 2.76037 12.17 2.51221 10.8424 4.80526L0.44767 22.7452C-0.751601 24.8143 0.588222 27.457 2.92718 27.6327L21.0553 28.9959C23.3927 29.1732 25.0946 26.7593 24.2024 24.5323L16.4675 5.22906ZM13.4624 6.46664C13.4574 6.47271 13.4528 6.47917 13.4487 6.48597L3.07232 24.3969L3.07537 24.4002C3.08019 24.403 3.08532 24.4051 3.09065 24.4066C3.10843 24.4129 3.12692 24.4167 3.14565 24.4179L21.2753 25.7811C21.3058 25.7844 21.3242 25.7811 21.3333 25.7811C21.35 25.7779 21.3655 25.7695 21.3776 25.757L13.6534 6.48436L13.6473 6.46825C13.6217 6.45452 13.5935 6.44682 13.5648 6.44569C13.5326 6.44244 13.5001 6.44741 13.4701 6.46019L13.4655 6.4618L13.4624 6.46664ZM44.894 48.9228C47.0976 47.8392 48.8028 45.8766 49.6345 43.4669C50.4663 41.0571 50.3564 38.3976 49.329 36.0733C48.8204 34.9224 48.1018 33.8885 47.2142 33.0306C46.3267 32.1726 45.2877 31.5075 44.1565 31.0731C41.8719 30.1958 39.3505 30.3117 37.1469 31.3953L20.5313 39.5685C19.4403 40.105 18.4601 40.863 17.6469 41.7991C16.8336 42.7351 16.203 43.831 15.7913 45.0241C15.3795 46.2173 15.1946 47.4842 15.2471 48.7527C15.2995 50.0212 15.5883 51.2664 16.097 52.4171C16.6057 53.5679 17.3243 54.6017 18.2118 55.4596C19.0992 56.3174 20.1382 56.9825 21.2693 57.4168C22.4005 57.8511 23.6017 58.0461 24.8043 57.9908C26.0069 57.9355 27.1874 57.6308 28.2784 57.0943L44.894 48.9228ZM21.8222 42.49C21.0869 42.8423 20.4251 43.3449 19.8751 43.9687C19.325 44.5924 18.8977 45.325 18.6177 46.124C18.3377 46.923 18.2107 47.7727 18.244 48.6238C18.2772 49.475 18.4701 50.3107 18.8114 51.0827C19.1527 51.8548 19.6358 52.5478 20.2326 53.1217C20.8294 53.6956 21.5281 54.1391 22.2884 54.4264C23.0487 54.7138 23.8555 54.8393 24.662 54.7958C25.4686 54.7522 26.259 54.5405 26.9875 54.1728L33.8103 50.8162L28.6466 39.1334L21.8222 42.49ZM36.5801 49.4545L31.4148 37.7717L38.4378 34.3168C39.1669 33.9449 39.9587 33.7294 40.7674 33.6831C41.5761 33.6367 42.3854 33.7604 43.1484 34.0469C43.9113 34.3334 44.6127 34.7769 45.2117 35.3518C45.8107 35.9267 46.2953 36.6215 46.6375 37.3957C46.9797 38.1699 47.1726 39.0082 47.205 39.8617C47.2374 40.7152 47.1086 41.567 46.8261 42.3676C46.5436 43.1682 46.113 43.9015 45.5595 44.5251C45.0059 45.1486 44.3404 45.6498 43.6016 45.9997L36.5801 49.4545Z" fill="#0A508F"/>
</g>
</svg>
