<svg xmlns="http://www.w3.org/2000/svg" width="155" height="139" viewBox="0 0 155 139" fill="none">
  <path d="M51.0653 22.3595C40.6149 22.3921 16.5172 36.7373 8.1133 69.5C-0.29061 102.263 8.51291 122.201 35.3836 124.068C61.7457 125.904 69.5805 109.343 70.7672 103.642C74.2547 86.9728 71.0699 59.2488 67.4371 44.1651C63.8043 29.0814 61.4672 22.3269 51.0653 22.3595Z" fill="#FEA8A7"/>
  <path d="M88.7496 100.981C90.1906 106.596 89.9605 111.265 93.0121 116.119C96.766 122.081 102.566 122.993 102.566 122.993L97.4441 97.311L85.6859 86.2996L83.8211 89.0687C83.809 89.0796 87.4418 95.8992 88.7496 100.981Z" fill="#FED0B0"/>
  <path d="M104.734 23.3043C115.063 23.2609 138.87 37.5735 147.177 70.0539C155.484 102.545 146.79 122.32 120.234 124.166C111.757 124.753 105.23 124.492 100.229 122.222C95.5187 118.552 97.2262 110.212 95.0344 101.264C93.9808 96.9417 88.7859 91.7075 83.8211 88.9818C83.5305 73.7461 85.9281 55.9367 88.5801 44.9145C92.1644 29.972 94.7074 23.3477 104.734 23.3043Z" fill="#FEA8A7"/>
  <path d="M9.73596 63.9508C9.73596 63.9508 16.6383 73.0075 36.2918 77.2969C55.9453 81.5864 72.1113 79.1322 72.1113 79.1322C72.1113 79.1322 71.0215 61.6812 69.2293 52.9285C67.4371 44.1758 49.4789 36.9326 45.9551 36.824C42.4313 36.7154 25.2481 37.215 25.2481 37.215C25.2481 37.215 19.9805 42.8401 16.6625 48.6065C13.1145 54.7963 9.73596 63.9508 9.73596 63.9508Z" fill="url(#paint0_linear_206_256)"/>
  <path d="M5.52185 83.1067C5.52185 83.1067 15.948 93.2928 21.3004 100.536C26.6527 107.779 37.2968 124.133 37.2968 124.133C37.2968 124.133 49.4789 125.219 58.7789 119.518C64.6883 115.88 68.8781 113.622 70.9972 102.512C73.1164 91.4033 48.2316 85.7455 44.2476 85.6478C40.2758 85.5501 21.3488 76.1459 18.8422 73.6591C16.3355 71.1723 9.05779 66.3398 9.05779 66.3398C9.05779 66.3398 7.47146 71.9216 7.08396 73.7677C6.70857 75.6029 5.52185 83.1067 5.52185 83.1067Z" fill="url(#paint1_linear_206_256)"/>
  <path d="M97.4199 117.792C97.4199 117.792 105.279 117.542 122.22 106.129C139.161 94.7155 148.582 76.2002 148.582 76.2002C148.582 76.2002 147.189 69.9778 146.693 68.2729C146.209 66.568 121.53 69.3263 115.172 71.2701C108.803 73.203 84.0754 78.307 84.0754 78.307C84.0754 78.307 83.7848 88.6125 83.809 89.0795C84.1238 89.1012 92.1887 94.9544 93.7508 98.4511C95.9063 103.273 96.0395 108.594 96.209 110.972C96.4391 114.099 97.4199 117.792 97.4199 117.792Z" fill="url(#paint2_linear_206_256)"/>
  <path d="M25.7203 59.5527C24.473 58.7383 22.6566 57.1094 23.6738 55.9908C24.691 54.8723 27.4277 56.4035 28.784 57.3157C30.1523 58.2279 32.5379 59.9654 32.5379 59.9654L42.8793 58.8468C42.8793 58.8468 34.3543 52.2226 32.7679 50.9955C31.1816 49.7684 27.7668 47.3251 29.2441 45.9025C30.7215 44.4799 33.4461 46.8147 34.9234 48.0418C36.4008 49.2689 46.2941 55.9908 46.2941 55.9908C46.2941 55.9908 44.1387 49.5729 43.4484 47.6291C42.7703 45.6961 40.8328 41.8193 42.8793 41.1026C44.9258 40.3859 46.173 44.2627 47.2023 46.402C48.2195 48.5413 54.25 60.9753 54.25 60.9753C54.25 60.9753 56.5265 63.2666 58.682 62.1698C60.8375 61.073 72.2687 49.9639 72.2687 49.9639L72.1113 12.2493C72.1113 12.2493 74.1336 11.5326 76.9793 11.4348C79.825 11.3371 82.3195 12.2493 82.3195 12.2493L82.7797 50.1593C82.7797 50.1593 93.6902 61.7789 96.0758 62.1807C98.4613 62.5825 100.399 62.9951 101.525 62.1807C102.663 61.3662 110.28 50.1594 110.958 48.2155C111.636 46.2826 109.372 40.5705 110.958 39.7561C112.545 38.9416 113.574 41.2872 114.143 43.0139C114.712 44.7514 115.39 46.5758 115.39 46.5758C115.39 46.5758 117.885 46.0654 119.362 45.6636C120.839 45.2509 122.777 45.2509 122.995 46.2717C123.225 47.2925 119.471 49.0191 117.764 50.0399C116.056 51.0607 113.332 51.8751 113.792 53.504C114.252 55.1329 117.885 54.6226 120.379 54.7311C122.874 54.8289 124.472 55.1438 124.472 56.3601C124.472 57.5872 120.609 58.1627 117.534 58.2822C114.47 58.4016 110.377 58.2822 110.377 58.2822C110.377 58.2822 108.1 61.6811 108.1 62.6368C108.1 63.5924 114.47 64.3091 118.212 64.9172C121.966 65.5254 130.491 66.0032 130.37 67.7515C130.261 69.4999 127.342 69.3044 125.368 69.4565C123.395 69.6085 118.478 68.49 118.551 69.4565C118.623 70.4229 123.092 74.1912 121.275 75.2119C119.459 76.2327 116.843 72.7686 115.136 71.2374C113.429 69.7062 112.29 68.794 112.29 68.794C112.29 68.794 97.5531 68.9461 97.432 69.4999C97.3231 70.0537 106.756 81.0651 108.452 81.5755C110.159 82.0859 118.454 83.4108 121.409 83.8126C124.363 84.2252 127.318 85.0397 127.088 86.3102C126.858 87.5808 123.334 87.483 120.948 87.483H114.47C114.47 87.483 122.317 93.7163 124.012 95.4864C125.707 97.2565 132.537 102.252 130.382 103.685C128.226 105.108 119.193 96.9741 117.061 95.4864C114.93 93.9986 109.808 90.5345 109.36 90.9363C108.912 91.3381 112.545 96.7461 113.332 98.0709C114.119 99.3958 117.461 103.674 115.003 104.641C113.089 105.39 107.773 96.6483 107.083 96.6483C106.405 96.6483 106.066 105.618 104.359 105.206C102.651 104.793 102.542 101.644 102.312 96.1379C102.082 90.6322 103.329 87.5808 101.973 86.2993C100.605 85.0288 95.0344 76.363 92.8789 74.8319C90.7234 73.3007 77.5 62.2024 77.5 62.2024C77.5 62.2024 63.7922 73.2138 60.9586 75.2554C58.1129 77.2969 52.6637 81.2715 52.0945 82.2922C51.5254 83.313 50.7262 86.6794 50.8472 87.8957C50.9562 89.1228 54.6012 96.7678 55.2793 97.984C55.9574 99.2111 58.234 103.696 56.4176 104.206C54.6012 104.717 52.3246 100.33 51.4164 99.0048C50.5082 97.68 48.2316 94.2158 48.2316 94.2158C48.2316 94.2158 46.1851 102.36 45.2769 104.663C44.3687 106.954 42.3222 114.088 40.0457 112.764C37.7691 111.439 38.9074 108.17 40.0457 104.663C41.184 101.155 42.0922 98.299 41.9832 97.8863C41.8742 97.4736 34.1363 101.35 32.659 102.273C31.1816 103.186 26.9797 105.531 25.9504 103.902C24.9332 102.273 29.5832 99.6238 31.2906 98.603C32.998 97.5822 43.7875 91.4684 43.7875 91.4684C43.7875 91.4684 43.8965 90.3499 44.5867 87.4939C45.2769 84.6379 45.4949 82.9112 45.4949 82.9112L38.4351 83.2153C38.4351 83.2153 34.2453 86.7772 33.107 87.9065C31.9687 89.025 29.3531 91.9788 28.3359 90.4585C27.3187 88.9273 31.9687 84.3447 31.9687 84.3447C31.9687 84.3447 28.5539 84.1383 26.8586 84.2469C25.1511 84.3447 23.1047 84.4532 22.9957 83.0198C22.8867 81.5972 29.1351 80.4353 32.1988 79.838C35.2625 79.2408 45.834 77.2101 45.834 77.2101L55.0371 69.5216C55.0371 69.5216 48.6676 63.549 47.6504 63.4512C46.6332 63.3535 34.3543 64.0594 34.3543 64.0594C34.3543 64.0594 31.8597 66.1009 30.7215 67.1217C29.5832 68.1425 27.6578 70.7053 26.1804 69.5216C24.7031 68.3379 26.4105 66.709 27.3187 65.5905L29.2562 62.6476" fill="#FEE5C3"/>
  <path d="M58.6821 62.1808C60.8375 61.084 72.2688 49.9749 72.2688 49.9749L72.1114 9.00245C72.1114 9.00245 74.1336 8.28573 76.9793 8.18799C79.825 8.09026 82.3196 9.00245 82.3196 9.00245L82.7797 50.1703C82.7797 50.1703 93.6903 61.7899 96.0758 62.1917C98.4614 62.5935 97.5532 68.9353 97.4442 69.4892C97.3352 70.043 95.0586 76.3632 92.9032 74.832C90.7477 73.3008 77.5 62.2025 77.5 62.2025C77.5 62.2025 63.7922 73.2139 60.9586 75.2555C58.1129 77.2971 55.0493 69.5 55.0493 69.5C55.0493 69.5 56.5266 63.2776 58.6821 62.1808Z" fill="url(#paint3_linear_206_256)"/>
  <path d="M70.4161 37.921C70.4282 40.3643 72.8985 40.1363 77.5 40.1363C82.1016 40.1363 84.3903 40.3752 84.4024 37.921C84.4145 35.0976 81.6778 35.6297 77.4153 35.6297C73.1407 35.6297 70.4039 35.2496 70.4161 37.921ZM70.5129 30.6669C70.525 33.1103 72.9954 32.8822 77.5969 32.8822C82.1985 32.8822 84.4871 33.1211 84.4993 30.6669C84.5114 27.8435 81.7746 28.3756 77.5121 28.3756C73.2375 28.3647 70.5008 27.9847 70.5129 30.6669ZM70.5129 23.402C70.525 25.8454 72.9954 25.6173 77.5969 25.6173C82.1985 25.6173 84.4871 25.8562 84.4993 23.402C84.5114 20.5786 81.7746 21.1107 77.5121 21.1107C73.2375 21.1107 70.5008 20.7197 70.5129 23.402ZM70.5129 16.3651C70.525 18.8085 72.9954 18.5804 77.5969 18.5804C82.1985 18.5804 84.4871 18.8194 84.4993 16.3651C84.5114 13.5417 81.7746 14.0738 77.5121 14.0738C73.2375 14.0738 70.5008 13.6937 70.5129 16.3651Z" fill="#F2A159"/>
  <defs>
    <linearGradient id="paint0_linear_206_256" x1="46.3608" y1="36.862" x2="41.1338" y2="78.3273" gradientUnits="userSpaceOnUse">
      <stop offset="0.294" stop-color="#FEA8A7"/>
      <stop offset="0.548" stop-color="#FEA4A2"/>
      <stop offset="0.827" stop-color="#FE9895"/>
    </linearGradient>
    <linearGradient id="paint1_linear_206_256" x1="52.9603" y1="78.8292" x2="22.0058" y2="107.794" gradientUnits="userSpaceOnUse">
      <stop offset="0.404" stop-color="#FEA8A7"/>
      <stop offset="0.609" stop-color="#FEA3A1"/>
      <stop offset="0.824" stop-color="#FE9895"/>
    </linearGradient>
    <linearGradient id="paint2_linear_206_256" x1="103.292" y1="67.1185" x2="125.197" y2="104.732" gradientUnits="userSpaceOnUse">
      <stop offset="0.352" stop-color="#FEA8A7"/>
      <stop offset="0.794" stop-color="#FE9B99"/>
      <stop offset="0.893" stop-color="#FE9895"/>
    </linearGradient>
    <linearGradient id="paint3_linear_206_256" x1="76.3739" y1="8.18473" x2="76.3739" y2="75.5911" gradientUnits="userSpaceOnUse">
      <stop offset="0.31" stop-color="#FED3B3"/>
      <stop offset="0.647" stop-color="#FED5B5"/>
      <stop offset="0.769" stop-color="#FEDCBB"/>
      <stop offset="0.841" stop-color="#FEE5C3"/>
    </linearGradient>
  </defs>
</svg>