<svg width="31" height="27" viewBox="0 0 31 27" fill="none" xmlns="http://www.w3.org/2000/svg">
<g id="fluent:ios-arrow-24-regular">
<rect x="0.558594" y="0.428589" width="29.6276" height="26.1429" rx="3" fill="#0A508E"/>
<path id="Vector" d="M20.168 13.5055L10.6782 5.90017C10.6001 5.83889 10.5383 5.76612 10.4965 5.68609C10.4546 5.60606 10.4336 5.52036 10.4345 5.43394C10.4354 5.34752 10.4583 5.2621 10.5018 5.18263C10.5453 5.10315 10.6087 5.0312 10.6881 4.97093C10.7675 4.91066 10.8615 4.86327 10.9645 4.83151C11.0676 4.79975 11.1777 4.78424 11.2885 4.78589C11.3993 4.78753 11.5086 4.80629 11.61 4.84109C11.7115 4.87589 11.8031 4.92603 11.8795 4.98862L21.937 13.0497C22.0892 13.1717 22.1744 13.3353 22.1744 13.5055C22.1744 13.6757 22.0892 13.8393 21.937 13.9613L11.8795 22.0224C11.8031 22.085 11.7115 22.1351 11.61 22.1699C11.5086 22.2047 11.3993 22.2235 11.2885 22.2251C11.1777 22.2268 11.0676 22.2113 10.9645 22.1795C10.8615 22.1477 10.7675 22.1003 10.6881 22.0401C10.6087 21.9798 10.5453 21.9078 10.5018 21.8284C10.4583 21.7489 10.4354 21.6635 10.4345 21.5771C10.4336 21.4906 10.4546 21.4049 10.4965 21.3249C10.5383 21.2449 10.6001 21.1721 10.6782 21.1108L20.168 13.5055Z" fill="white"/>
</g>
</svg>
